<svg xmlns="http://www.w3.org/2000/svg" viewBox="0 0 64 64" fill="none">
  <defs>
    <linearGradient id="andjixGrad" x1="0%" y1="0%" x2="100%" y2="100%">
      <stop offset="0%" stop-color="#4FC3F7"/>
      <stop offset="55%" stop-color="#1E88E5"/>
      <stop offset="100%" stop-color="#0B3D91"/>
    </linearGradient>
  </defs>
  <rect x="2" y="2" width="60" height="60" rx="14" fill="url(#andjixGrad)"/>
  <path d="M19 44 L26 22 L31 22 L38 44 L33 44 L31.4 39 L25.6 39 L24 44 Z M27 34.5 L30 34.5 L28.5 28.8 Z" fill="#FFFFFF"/>
  <path d="M40 22 L45 22 L45 36 C45 39.5 42.7 41.5 39.5 41.5 C36.3 41.5 34 39.5 34 36 L38 36 C38 37.5 38.7 38 39.5 38 C40.3 38 41 37.5 41 36 Z" fill="#FFFFFF" opacity="0.95"/>
  <circle cx="48" cy="48" r="4" fill="#D52B1E"/>
</svg>
